<?xml version="1.0" encoding="UTF-8"?><svg width="100%" height="100%" version="1.1" viewBox="0 0 377 205" xmlns:xlink="http://www.w3.org/1999/xlink" xmlns="http://www.w3.org/2000/svg"><title>Rakete</title><desc>Blaue Rakete mit roter Spitze und oranger Flamme</desc><path d="m96 107.6c-.11-.4-10.46-33.59-40.18-35.29-29.75-1.7-55.5 35-55.72 35.29.22.3 25.97 37 55.72 35.3 29.72-1.7 40.07-34.9 40.18-35.3z" fill="#fc9937" /><path d="m96.02 107.6c-.10-.3-7.76-24.89-29.79-26.09-22.06-1.3-41.14 25.89-41.31 26.09.17.3 19.25 27.4 41.31 26.2 22.03-1.3 29.7-25.9 29.79-26.2z" fill="#fcc550" /><path d="m110.8 68.81l-33.42-7.7v35.2 16.59 35.2l33.42-7.6v-27.6-16.59-27.5z" fill="#283e4e" /><path d="m110.8 68.81l-33.42-7.7v35.2 16.59 9.1h33.42v-9.1-16.59-27.5z" fill="#283e4e" /><rect fill="hsla(190,40%,60%,0.7)" x="106" y="49" width="204" height="108" /><rect fill="hsla(190,40%,60%,0.7)" x="106" y="49" width="203" height="74" /><path d="m308 156.6s-.4-37.2 0-63.59c.8-22.8 2.1-43 2.1-43s24.4 3.7 37.6 13.2c18.9 13.4 29.3 41.29 29.3 41.29s-7.2 22.6-25.6 37.7c-17.8 14.5-43.4 14.4-43.4 14.4z" fill="#ee5747" /><path d="m377 104.6s-10.4-27.99-29.3-41.39c-13.2-9.5-37.6-13.2-37.6-13.2s-1.3 20.2-2.1 43c-.2 9.39-.2 19.89-.2 29.89 12.3-.2 27.4-.8 38.3-2.7 12.1-2.9 22.7-9.2 30.9-15.5l.1-.1z" fill="#e12815" /><path d="m242.6 132.6a25.28 25.28 0 1 1 0 -50.49 25.28 25.28 0 1 1 0 50.49z" stroke="#444" stroke-width="7.717" fill="#e1e5e7" /><path d="m196 54.51l-59.8-54.01h-43.06l28.76 59.71z" fill="#2e3c4b" /><path d="m196 151.1l-59.8 54h-43.06l28.76-59.8z" fill="#2e3c4b" /></svg>